<?xml version="1.0" standalone="no"?>
<!DOCTYPE svg PUBLIC "-//W3C//DTD SVG 20010904//EN"
 "http://www.w3.org/TR/2001/REC-SVG-20010904/DTD/svg10.dtd">
<svg version="1.0" xmlns="http://www.w3.org/2000/svg"
 width="346.000000pt" height="139.000000pt" viewBox="0 0 346.000000 139.000000"
 preserveAspectRatio="xMidYMid meet">

<g transform="translate(0.000000,139.000000) scale(0.100000,-0.100000)"
fill="white" stroke="none">
<path d="M739 1284 c-179 -55 -271 -238 -202 -404 16 -40 82 -111 130 -141 18
-11 94 -47 169 -79 74 -32 154 -71 176 -86 111 -77 100 -219 -22 -288 -48 -27
-64 -31 -130 -31 -90 1 -164 30 -234 95 -25 23 -49 40 -54 38 -21 -7 -92 -79
-92 -92 0 -17 97 -109 139 -131 233 -120 513 -49 604 153 29 66 29 169 -2 239
-41 93 -122 154 -296 223 -122 48 -190 86 -223 125 -27 30 -32 44 -32 88 0
104 65 157 192 157 85 0 139 -21 209 -80 l46 -39 42 43 c22 23 41 47 41 53 0
17 -94 99 -141 124 -96 49 -226 62 -320 33z"/>
<path d="M1870 1285 c-266 -73 -440 -303 -440 -582 0 -294 194 -534 477 -589
124 -24 239 -7 363 56 58 29 150 99 150 114 0 7 -20 31 -44 55 l-44 43 -46
-32 c-26 -17 -72 -43 -104 -58 -51 -24 -69 -27 -167 -27 -105 0 -114 2 -178
33 -37 18 -90 55 -117 82 -146 142 -173 394 -61 568 140 215 401 262 616 111
l57 -40 48 53 c35 39 45 56 38 66 -24 29 -160 111 -219 132 -84 29 -249 37
-329 15z"/>
<path d="M2834 1281 c-34 -10 -85 -32 -113 -50 -48 -31 -111 -93 -111 -109 1
-4 21 -29 46 -56 l44 -48 49 45 c76 71 123 91 211 92 102 0 153 -28 193 -105
25 -48 28 -63 24 -121 -5 -86 -41 -164 -109 -235 -29 -31 -142 -133 -250 -226
l-198 -170 0 -89 c0 -51 4 -89 10 -89 13 0 371 312 488 425 155 150 203 243
204 395 1 101 -23 174 -78 238 -91 107 -254 148 -410 103z"/>
<path d="M110 705 c0 -322 3 -585 7 -585 4 0 40 33 80 72 l73 72 0 513 0 513
-80 0 -80 0 0 -585z"/>
<path d="M2960 190 l0 -60 190 0 191 0 -3 58 -3 57 -187 3 -188 2 0 -60z"/>
</g>
</svg>
