<svg
  xmlns="http://www.w3.org/2000/svg"
  width="91"
  height="32"
  viewBox="0 0 200 32"
>
  <title>samsung</title>
  <path
    d="M8 8.8V7.2c0-.802.8-1.598 2.398-1.598 1.602 0 2.403.796 2.403 2.398v1.602H20V7.199C20 .801 14.398 0 10.398 0 5.602 0 .801 1.602.801 6.398v4C2.398 16 12 17.602 13.6 21.602V24c0 .8-.8 1.602-2.402 1.602C9.602 25.602 8 24.8 8 23.199v-2.398H0v2.398c0 6.403 4.8 8 10.398 8 4.801 0 9.602-1.597 10.403-6.398V20C19.199 14.398 8.8 12.8 8 8.8m92.8 0V7.2c0-.802.802-1.598 2.4-1.598 1.6 0 2.402.796 2.402 2.398v1.602h7.199V8c0-6.398-5.602-7.2-9.602-7.2-4.8 0-8.8 1.598-9.597 6.4v4c1.597 5.6 11.199 7.198 12.796 11.198v2.403c0 .8-.796 1.597-2.398 1.597s-3.2-.796-3.2-2.398v-2.398h-7.198V24c0 6.398 4.796 8 10.398 8 4.8 0 9.602-1.602 9.602-6.398V20.8c-1.602-6.403-12-8-12.801-12m64.8 16L159.2 1.6h-10.398v28H156l-.8-24 7.198 24h10.403v-28h-7.2ZM31.2 1.6l-5.597 28.797h8l4-26.398 4 26.398h8L44 1.602Zm42.403 0-4 22.399-3.204-22.398h-12l-.796 28.796H60.8V4l4.8 26.398h7.2L77.6 4v26.398h7.2L84 1.602Zm66.398 0h-7.2V23.2c0 .801-.8 2.403-2.402 2.403-1.597 0-2.398-1.602-2.398-2.403V1.602h-7.2V24c.802 5.602 4.802 7.2 9.598 7.2C136 31.2 140 29.601 140 24v-1.602Zm49.602 12.797v4h3.199V23.2c0 .801-.801 2.403-3.2 2.403-2.402 0-2.402-1.602-3.203-2.403V8c0-.8.801-2.398 3.204-2.398C192 5.602 192 7.199 192.8 8v2.398H200V8c-.8-5.602-4.8-7.2-10.398-7.2C184.8.8 180 2.399 179.199 8v15.199c.801 5.602 4.801 7.2 10.403 7.2 4.796 0 9.597-1.598 10.398-7.2v-9.597h-10.398Zm0 0"
    fill="white"
  />
</svg>